<?xml version="1.0" standalone="no"?>
<!DOCTYPE svg PUBLIC "-//W3C//DTD SVG 20010904//EN"
 "http://www.w3.org/TR/2001/REC-SVG-20010904/DTD/svg10.dtd">
<svg version="1.0" xmlns="http://www.w3.org/2000/svg"
 width="480.000000pt" height="480.000000pt" viewBox="0 0 480.000000 480.000000"
 preserveAspectRatio="xMidYMid meet">
<metadata>
Created by potrace 1.11, written by Peter Selinger 2001-2013
</metadata>
<g transform="translate(0.000000,480.000000) scale(0.100000,-0.100000)"
fill="#000000" stroke="none">
<path d="M1262 4660 c-37 -35 -38 -48 -33 -395 2 -104 0 -126 -18 -162 -32
-64 -26 -117 14 -118 11 0 21 -48 29 -137 3 -37 11 -77 18 -88 19 -30 63 -37
97 -16 10 7 12 5 6 -5 -4 -8 2 -4 14 9 12 12 19 27 16 32 -9 14 8 12 25 -2 12
-11 12 -10 2 3 -6 9 -8 20 -4 24 4 5 1 5 -7 0 -10 -6 -12 -4 -6 5 9 15 15 131
6 126 -3 -3 -7 15 -7 40 -1 30 2 41 10 37 6 -4 5 0 -2 9 -15 19 -22 87 -10 94
5 3 6 10 2 15 -3 6 4 13 16 16 16 4 18 8 8 14 -10 7 -9 9 5 9 9 0 17 5 17 11
0 5 -5 7 -12 3 -7 -4 -8 -3 -4 5 4 6 12 9 17 6 5 -4 9 1 9 10 0 9 5 13 10 10
6 -4 8 -11 5 -16 -4 -5 -1 -9 4 -9 6 0 11 -9 11 -20 0 -46 33 -176 51 -201 10
-15 37 -36 59 -47 26 -12 36 -15 29 -6 -14 17 2 19 20 2 11 -10 13 -10 7 0 -4
7 -2 12 6 12 7 1 27 12 43 26 17 15 24 23 17 19 -11 -6 -12 -3 -2 14 6 12 21
26 33 31 21 8 21 9 2 10 -17 0 -17 2 -5 10 13 9 13 10 0 10 -12 0 -13 2 -1 9
7 5 10 14 7 20 -4 6 -3 11 3 11 5 0 11 -6 14 -12 3 -7 4 -3 4 9 -1 12 -4 20
-7 18 -9 -6 -6 28 4 44 5 8 4 16 -4 21 -9 5 -9 9 -1 14 6 4 9 12 5 17 -3 5 -9
7 -13 4 -5 -2 -22 0 -40 5 -20 5 -31 5 -31 -1 0 -6 -10 -8 -22 -5 -13 3 -17 3
-10 0 16 -8 15 -22 -2 -40 -13 -12 -15 -12 -14 3 1 10 -2 29 -6 42 -6 18 -5
22 5 16 8 -5 5 2 -6 15 -11 13 -14 20 -7 16 6 -4 12 -3 12 2 0 6 -7 13 -16 16
-8 3 -13 10 -9 16 3 5 -1 22 -9 38 -8 16 -12 33 -8 37 4 5 2 5 -5 2 -6 -4 -17
-1 -25 6 -7 8 -19 12 -26 9 -6 -2 -10 2 -9 10 2 7 2 10 0 6 -3 -5 -14 -8 -24
-8 -11 0 -17 4 -14 10 3 5 -11 2 -31 -6 -20 -9 -46 -13 -56 -11 -14 4 -17 2
-9 -7 8 -9 7 -13 -2 -13 -17 0 -18 27 -3 46 8 11 8 13 -1 8 -6 -4 -14 -3 -18
3 -3 6 4 11 17 11 18 1 19 2 5 6 -10 3 -16 11 -14 18 3 7 0 18 -6 25 -9 10 -8
12 6 7 9 -4 17 -2 17 3 0 6 -4 10 -10 10 -5 0 -10 5 -10 11 0 5 5 7 12 3 7 -5
8 -3 2 7 -13 22 -14 103 -1 112 8 6 7 7 -3 4 -8 -2 -31 7 -50 20 -42 28 -60
29 -88 3z"/>
<path d="M1405 4600 c-3 -6 1 -7 9 -4 18 7 21 14 7 14 -6 0 -13 -4 -16 -10z"/>
<path d="M2111 4584 c-24 -7 -57 -10 -73 -7 -24 5 -35 0 -59 -26 -16 -18 -29
-35 -29 -38 0 -3 -13 -33 -29 -67 -27 -59 -39 -88 -42 -104 0 -4 -5 -14 -10
-23 -4 -9 -11 -31 -14 -49 -3 -17 -7 -37 -8 -43 -1 -7 -6 -15 -12 -19 -6 -5
-5 -8 4 -8 10 0 10 -6 -4 -26 -9 -15 -12 -23 -6 -20 7 5 11 -3 11 -21 0 -56
20 -102 50 -118 16 -8 37 -15 46 -15 14 0 15 -2 3 -17 -13 -17 -13 -17 5 -3
25 19 58 20 73 0 10 -13 11 -12 10 5 -1 13 4 20 16 19 9 -1 17 2 17 8 0 5 5 6
11 3 6 -4 8 -14 5 -22 -3 -8 -1 -11 5 -8 5 4 7 16 3 27 -4 14 -3 18 6 13 17
-11 60 -13 54 -3 -3 5 -12 7 -20 4 -7 -3 -16 -1 -19 3 -6 11 56 42 69 34 5 -3
6 -1 2 5 -6 11 31 57 46 57 13 0 22 16 23 38 0 15 6 22 18 21 14 -2 15 1 6 12
-9 11 -8 14 7 15 11 1 23 1 27 0 5 -1 6 3 2 8 -3 6 -13 7 -23 4 -14 -6 -15 -4
-5 9 7 8 9 19 5 23 -4 5 1 5 11 2 9 -4 17 -2 17 2 0 5 -5 11 -10 13 -7 2 -6
14 3 36 7 18 16 30 19 27 2 -3 5 2 5 10 0 8 -4 12 -9 9 -4 -3 -8 0 -8 5 0 6 4
11 10 11 5 0 6 7 3 17 -5 12 -3 14 7 8 10 -6 11 -4 4 6 -9 16 -11 20 -20 68
-3 19 -17 49 -30 66 -13 18 -24 36 -24 42 0 5 -6 10 -12 11 -7 0 -31 3 -53 5
-22 3 -60 -1 -84 -9z m59 -139 c6 3 7 -1 4 -9 -3 -9 -10 -14 -14 -11 -5 3 -11
1 -14 -4 -7 -10 13 -9 30 2 15 9 15 -43 0 -62 -9 -12 -8 -13 4 -6 12 7 13 6 3
-7 -7 -8 -10 -18 -6 -22 4 -3 -2 -13 -13 -22 -10 -8 -13 -13 -6 -9 10 5 10 1
0 -19 -6 -14 -15 -26 -20 -26 -4 0 -8 -6 -8 -12 -1 -7 -15 -29 -32 -48 -17
-19 -27 -28 -23 -20 4 8 -2 5 -12 -7 -13 -16 -25 -21 -43 -17 -20 5 -22 3 -10
-5 9 -7 10 -11 3 -11 -16 0 -26 17 -13 25 5 3 10 11 10 16 0 6 -5 7 -11 4 -7
-5 -8 4 -4 26 4 19 7 42 8 52 1 9 8 17 17 17 13 0 13 2 0 10 -12 8 -12 11 2
27 8 10 13 24 10 32 -3 10 0 12 11 8 11 -4 13 0 10 14 -4 15 -2 18 13 12 16
-6 17 -4 7 9 -11 12 -9 18 7 33 11 10 20 14 20 9 0 -5 4 -2 10 6 5 8 11 12 15
9 3 -3 -4 -17 -15 -32 -11 -14 -20 -29 -20 -33 0 -4 11 7 25 26 20 27 22 36
12 48 -10 13 -9 14 11 3 12 -6 27 -9 32 -6z m70 -299 c0 -3 -4 -8 -10 -11 -5
-3 -10 -1 -10 4 0 6 5 11 10 11 6 0 10 -2 10 -4z"/>
<path d="M2079 4403 c-13 -16 -12 -17 4 -4 16 13 21 21 13 21 -2 0 -10 -8 -17
-17z"/>
<path d="M2025 4300 c-3 -6 1 -7 9 -4 18 7 21 14 7 14 -6 0 -13 -4 -16 -10z"/>
<path d="M2014 4232 c3 -5 0 -13 -6 -15 -9 -4 -10 -6 -1 -6 17 -1 25 16 12 25
-7 4 -9 3 -5 -4z"/>
<path d="M1413 4569 c3 -9 1 -21 -4 -26 -6 -6 -4 -10 5 -10 14 0 14 33 0 46
-4 3 -5 -1 -1 -10z"/>
<path d="M2776 4568 c3 -5 -2 -9 -10 -9 -25 -2 -30 -4 -44 -13 -7 -4 -19 -5
-27 -2 -8 3 -17 0 -21 -6 -4 -7 -3 -8 4 -4 7 4 12 5 12 2 0 -6 -57 -37 -66
-35 -3 0 -9 -3 -12 -7 -4 -4 0 -4 8 1 8 4 -5 -12 -30 -35 -25 -24 -45 -46 -45
-50 0 -13 -33 -39 -40 -32 -5 4 -5 2 -1 -5 4 -7 -2 -21 -14 -33 -18 -18 -25
-18 -21 3 1 5 -3 6 -9 2 -6 -3 -8 -10 -5 -15 3 -5 -4 -15 -14 -23 -11 -7 -27
-26 -35 -42 -14 -26 -13 -30 4 -45 14 -12 18 -28 17 -62 -1 -25 1 -44 4 -42 4
2 9 -3 13 -11 3 -8 0 -15 -6 -15 -14 0 -2 -13 15 -16 27 -5 82 -30 89 -39 5
-6 8 -4 8 5 0 13 1 13 10 0 5 -8 10 -10 10 -5 0 6 26 10 60 10 33 0 60 3 60 7
0 4 9 5 20 3 11 -2 20 0 20 6 0 5 8 9 18 9 10 0 27 7 38 15 12 8 24 11 28 8 3
-4 13 2 21 13 8 10 15 15 15 11 0 -13 47 38 64 71 16 31 14 36 -23 57 -10 6
-12 4 -7 -4 13 -20 -27 -9 -43 12 -7 10 -11 19 -10 21 72 46 91 56 99 51 5 -3
7 0 4 8 -3 8 5 23 18 34 13 10 25 25 27 33 19 70 6 118 -41 151 -21 15 -46 21
-97 22 -38 1 -67 -1 -65 -5z m37 -145 c-5 -12 -3 -14 8 -8 8 5 5 -2 -6 -14
-17 -20 -21 -21 -31 -7 -16 23 -27 20 -14 -4 6 -12 7 -20 1 -20 -5 0 -12 6
-14 13 -3 7 -6 5 -6 -5 -1 -10 -7 -19 -13 -19 -7 -1 -30 -3 -51 -4 l-39 -2 34
31 c45 42 74 64 64 49 -4 -8 -1 -13 9 -13 10 0 14 5 9 13 -5 9 -4 9 6 0 15
-14 43 -6 33 10 -3 6 -1 7 5 3 6 -4 8 -14 5 -23z m15 -165 c18 -18 15 -24 -24
-47 -19 -12 -32 -17 -29 -11 3 5 -1 10 -9 10 -9 0 -16 5 -16 11 0 5 5 7 12 3
7 -5 8 -3 3 5 -5 9 -10 10 -18 2 -7 -7 -6 -15 3 -26 7 -8 10 -15 6 -15 -15 0
-22 -2 -33 -12 -9 -8 -13 -7 -13 3 -1 10 -5 8 -15 -5 -8 -11 -18 -17 -21 -13
-4 4 -2 13 5 20 9 11 7 17 -6 28 -16 13 -17 12 -4 -3 12 -17 9 -23 -12 -19 -5
1 -6 -7 -3 -17 5 -14 1 -18 -19 -18 -15 0 -25 6 -25 14 0 12 3 12 18 1 15 -12
14 -11 -1 8 -12 13 -16 27 -11 35 6 10 3 9 -10 -1 -11 -9 -13 -17 -6 -21 7 -5
6 -11 -5 -20 -13 -11 -14 -10 -9 5 5 13 4 16 -4 11 -8 -4 -10 -2 -6 8 7 17 30
29 64 31 14 1 43 5 65 10 22 4 46 7 53 8 6 0 12 4 12 9 0 4 4 8 9 8 4 0 7 -11
6 -25 -3 -22 -1 -23 16 -15 22 12 24 21 7 38 -7 7 -8 12 -2 12 6 0 15 -5 22
-12z m-18 -18 c0 -5 -4 -10 -10 -10 -5 0 -10 5 -10 10 0 6 5 10 10 10 6 0 10
-4 10 -10z"/>
<path d="M2705 4391 c-3 -8 -1 -19 5 -25 8 -8 9 -6 5 7 -5 11 -2 17 8 17 9 0
18 4 22 9 3 6 -4 9 -15 8 -10 -1 -22 -8 -25 -16z"/>
<path d="M2790 4399 c0 -5 5 -7 10 -4 6 3 10 8 10 11 0 2 -4 4 -10 4 -5 0 -10
-5 -10 -11z"/>
<path d="M2675 4370 c-3 -5 -1 -10 4 -10 6 0 11 5 11 10 0 6 -2 10 -4 10 -3 0
-8 -4 -11 -10z"/>
<path d="M2696 4222 c-2 -4 4 -13 15 -20 22 -14 25 -7 5 14 -8 8 -17 11 -20 6z"/>
<path d="M2637 4213 c-4 -3 -7 -11 -7 -17 0 -6 5 -5 12 2 6 6 9 14 7 17 -3 3
-9 2 -12 -2z"/>
<path d="M1410 4460 c0 -5 5 -10 11 -10 5 0 7 5 4 10 -3 6 -8 10 -11 10 -2 0
-4 -4 -4 -10z"/>
<path d="M3270 4410 c-6 -4 -25 -6 -41 -5 -18 2 -26 -1 -22 -8 4 -6 -2 -8 -15
-5 -12 4 -20 2 -17 -2 7 -11 -54 -31 -69 -23 -6 4 -4 -2 4 -12 13 -17 13 -18
-1 -13 -13 5 -16 0 -16 -20 0 -36 15 -48 59 -47 21 1 43 -3 50 -8 9 -6 8 -7
-4 -3 -10 3 -20 1 -23 -4 -4 -6 -1 -10 6 -10 16 0 -42 -59 -59 -60 -7 0 -11
-4 -8 -9 3 -5 -1 -14 -9 -21 -10 -9 -15 -9 -15 -1 0 6 5 11 11 11 5 0 7 5 3
11 -4 8 -12 1 -22 -17 -20 -39 -70 -95 -74 -83 -2 5 -9 0 -16 -12 -8 -12 -9
-18 -4 -15 6 3 5 -5 -1 -18 -7 -13 -14 -23 -17 -21 -3 2 -6 -9 -6 -23 -1 -15
0 -22 3 -15 3 8 11 5 24 -8 21 -21 69 -25 87 -7 7 7 12 9 12 6 0 -3 16 9 37
28 20 18 41 30 46 27 6 -3 7 -2 4 4 -7 11 90 100 104 96 4 -2 5 5 2 15 -3 9
-3 14 2 10 4 -4 15 2 24 13 9 11 26 22 39 24 12 3 31 7 42 9 11 3 21 1 21 -5
1 -5 2 -15 3 -21 3 -22 -68 -117 -88 -118 -5 0 -3 6 3 14 8 10 9 16 1 21 -6 4
-9 1 -8 -7 2 -7 -3 -12 -11 -10 -12 3 -12 1 0 -14 11 -13 11 -18 2 -21 -7 -3
-13 -11 -13 -18 0 -7 -7 -16 -16 -19 -9 -4 -14 -13 -10 -21 3 -8 1 -15 -4 -15
-5 0 -7 -7 -4 -15 4 -8 3 -15 0 -15 -4 0 -11 10 -16 23 -6 16 -9 17 -9 5 -1
-9 4 -20 9 -23 6 -4 7 -11 4 -17 -4 -7 -2 -8 4 -4 7 4 12 1 12 -8 0 -8 -3 -16
-7 -19 -5 -2 -2 -2 4 -1 16 4 32 -26 26 -46 -4 -13 -3 -13 6 0 5 8 7 18 5 22
-3 5 6 3 20 -4 14 -6 26 -16 26 -22 0 -6 4 -6 11 1 14 14 41 5 32 -11 -4 -6 1
-5 10 3 10 8 20 11 24 8 3 -4 15 -2 26 4 14 8 18 8 12 -1 -4 -6 16 0 44 14 28
15 51 24 51 21 0 -2 16 11 35 29 40 39 44 64 15 89 -11 9 -20 13 -20 9 0 -4
-9 -8 -20 -8 -11 0 -20 4 -20 9 0 5 -7 6 -15 3 -8 -3 -22 -9 -31 -13 -17 -6
-6 11 36 56 26 29 97 125 109 148 17 34 13 61 -12 78 -36 24 -107 41 -163 40
-45 -1 -51 1 -51 19 -1 40 -3 44 -35 57 -18 7 -36 18 -40 23 -5 8 -8 7 -8 -1
0 -8 -9 -9 -29 -3 -15 4 -34 4 -41 0z"/>
<path d="M857 4319 c-10 -6 -37 -9 -60 -6 -56 7 -91 -10 -156 -74 -59 -59
-153 -172 -168 -204 -15 -30 -16 -114 -3 -131 7 -7 27 -14 45 -14 31 0 33 -2
60 -77 92 -258 272 -618 324 -650 22 -14 73 -2 104 25 16 15 17 14 11 -4 -4
-10 -17 -35 -30 -55 -40 -64 -91 -180 -82 -185 5 -3 10 -4 12 -3 29 47 146
174 211 229 55 47 163 119 169 113 3 -4 6 -2 6 4 0 5 39 28 88 51 156 73 273
104 139 37 -121 -61 -260 -185 -347 -310 -19 -27 -38 -52 -41 -55 -8 -7 -82
-166 -95 -205 -31 -91 -49 -183 -60 -305 -10 -103 -10 -86 0 -195 9 -96 11
-114 21 -154 10 -40 22 -8 28 74 3 39 11 93 17 120 6 28 14 61 16 74 3 14 8
29 12 35 3 6 7 18 9 26 4 26 62 162 90 210 85 148 227 309 347 391 l61 42 -60
-63 c-85 -90 -81 -85 -136 -166 -70 -104 -133 -244 -159 -354 -11 -43 -13 -55
-25 -117 -3 -16 -7 -91 -9 -169 -4 -146 5 -235 33 -349 6 -22 10 -40 10 -40
-2 0 18 -74 34 -125 80 -259 266 -583 457 -794 123 -136 139 -141 65 -19 -25
40 -45 78 -45 83 0 6 -3 10 -7 10 -5 0 -13 10 -19 23 -6 12 -40 81 -76 152
-68 134 -99 199 -102 219 -1 6 -10 28 -19 50 -9 21 -17 45 -17 52 0 8 -4 14
-9 14 -5 0 -11 12 -14 27 -3 16 -17 73 -32 128 -32 119 -35 132 -41 165 -2 14
-7 43 -11 65 -9 48 -9 386 -1 435 8 45 44 178 58 213 5 15 15 39 22 55 6 15
12 29 13 32 7 22 45 100 49 100 2 0 -5 -28 -17 -62 -47 -144 -56 -331 -23
-456 28 -106 147 -305 169 -283 5 5 4 17 -2 29 -31 59 -62 242 -62 377 -1 107
13 244 27 267 3 4 7 16 9 25 2 10 8 33 14 51 5 17 7 32 3 32 -4 0 -2 4 4 8 5
4 20 31 33 60 24 58 94 176 117 199 8 8 27 33 43 56 29 41 129 141 182 182 44
35 59 66 53 117 -2 26 -8 57 -12 70 -18 49 0 189 37 304 16 47 17 56 5 61 -19
7 -144 -3 -214 -17 -30 -6 -66 -13 -80 -15 -14 -2 -37 -8 -52 -14 -16 -6 -28
-7 -28 -4 0 4 -5 2 -12 -5 -7 -7 -20 -12 -30 -12 -10 0 -26 -4 -36 -9 -9 -5
-61 -30 -115 -55 -140 -65 -235 -134 -368 -266 -71 -71 -115 -108 -115 -97 0
9 5 17 11 17 5 0 2 5 -8 11 -9 6 -14 15 -11 21 4 7 2 8 -4 4 -11 -7 -17 6 -13
27 1 5 -3 6 -9 2 -6 -3 -8 -11 -5 -16 4 -5 1 -9 -4 -9 -6 0 -11 5 -11 12 0 6
-3 8 -7 5 -11 -11 -32 14 -26 30 5 12 3 14 -8 8 -11 -7 -11 -5 1 10 14 17 13
18 -3 12 -11 -4 -16 -3 -12 3 3 6 1 10 -5 10 -7 0 -9 7 -6 16 4 10 2 13 -6 8
-8 -5 -9 -2 -5 9 3 10 2 17 -4 17 -6 0 -7 5 -4 10 3 6 -2 10 -12 10 -15 0 -14
4 7 21 21 17 22 19 3 10 -26 -13 -36 -14 -29 -2 3 5 -1 14 -9 21 -8 7 -15 20
-15 29 0 9 -7 26 -15 38 -10 14 -12 24 -5 28 5 3 10 5 11 3 0 -2 2 -11 4 -21
2 -11 6 -22 10 -25 3 -4 3 9 0 27 -5 31 -4 33 11 20 12 -9 15 -10 10 -1 -4 6
-3 12 3 12 14 0 42 55 33 65 -4 5 1 5 11 2 13 -5 16 -3 10 6 -10 16 -11 57 -1
57 4 0 5 7 2 15 -4 8 -2 15 4 15 6 0 9 -11 8 -25 -2 -13 1 -22 5 -19 5 3 7 16
5 29 -3 13 -1 26 2 28 4 2 1 2 -5 1 -8 -2 -11 5 -9 19 3 12 5 22 6 22 1 0 3
16 3 35 2 28 6 35 22 33 19 -1 19 -1 3 11 -20 15 -25 31 -5 20 7 -5 6 0 -3 11
-9 11 -10 16 -2 11 8 -5 11 -1 9 13 -2 11 -6 23 -10 27 -3 4 -1 16 4 27 6 11
7 22 3 26 -15 10 -16 53 -1 45 8 -6 8 -3 -1 9 -8 9 -10 22 -6 28 4 7 3 10 -2
6 -5 -3 -14 6 -21 19 -8 18 -8 23 0 18 7 -3 4 1 -5 9 -18 14 -25 33 -10 23 5
-3 9 1 9 9 0 11 -4 12 -13 4 -10 -8 -20 -6 -40 10 -15 12 -36 21 -47 21 -20 0
-21 0 -1 15 22 17 17 19 -9 4z m-51 -304 c-9 -144 -21 -187 -42 -153 -5 7 -3
8 7 3 10 -6 9 -3 -2 11 -9 10 -19 27 -23 38 -7 21 11 49 27 39 6 -3 7 -1 3 6
-6 9 -11 9 -21 1 -19 -16 -35 -4 -30 22 3 12 -1 28 -8 37 -10 12 -9 13 2 6 11
-6 13 -4 8 8 -3 10 -2 17 3 17 6 0 10 -6 10 -12 0 -7 7 0 15 16 9 16 13 36 11
43 -3 7 0 12 7 10 7 -1 11 5 9 13 -1 10 3 9 14 -5 12 -16 14 -36 10 -100z
m-54 53 c-7 -7 -12 -8 -12 -2 0 14 12 26 19 19 2 -3 -1 -11 -7 -17z"/>
<path d="M739 3998 c-5 -18 -6 -38 -1 -34 7 8 12 36 6 36 -2 0 -4 -1 -5 -2z"/>
<path d="M896 4322 c-3 -5 1 -9 9 -9 8 0 12 4 9 9 -3 4 -7 8 -9 8 -2 0 -6 -4
-9 -8z"/>
<path d="M1636 4293 c-6 -14 -5 -15 5 -6 7 7 10 15 7 18 -3 3 -9 -2 -12 -12z"/>
<path d="M2316 4298 c3 -5 10 -6 15 -3 13 9 11 12 -6 12 -8 0 -12 -4 -9 -9z"/>
<path d="M920 4291 c0 -6 4 -13 10 -16 6 -3 7 1 4 9 -7 18 -14 21 -14 7z"/>
<path d="M2875 4280 c-3 -6 1 -7 9 -4 18 7 21 14 7 14 -6 0 -13 -4 -16 -10z"/>
<path d="M2850 4271 c0 -6 4 -13 10 -16 6 -3 7 1 4 9 -7 18 -14 21 -14 7z"/>
<path d="M4120 4269 c-25 -3 -48 -5 -52 -2 -5 2 -8 -1 -8 -7 0 -6 -4 -8 -10
-5 -5 3 -10 1 -10 -5 0 -6 -6 -8 -12 -4 -7 4 -10 4 -6 0 4 -5 3 -19 -3 -33 -6
-16 -6 -22 1 -18 6 3 10 2 10 -4 0 -5 -3 -11 -7 -14 -5 -2 -2 -2 5 0 8 2 16
-6 19 -16 3 -11 12 -22 20 -26 14 -5 14 -3 2 11 -13 16 -12 16 8 4 13 -8 19
-20 15 -29 -5 -14 -4 -14 12 -2 15 13 18 12 23 -7 3 -12 10 -22 15 -22 5 0 6
5 2 11 -4 7 -1 10 7 7 8 -3 13 -11 11 -18 -2 -10 1 -10 14 1 16 12 17 12 12
-2 -4 -9 -1 -16 8 -16 7 0 11 4 8 9 -3 4 2 8 10 8 8 0 18 -5 22 -11 4 -8 9 -8
17 0 6 6 22 11 37 11 43 0 70 12 70 29 0 15 -76 95 -122 129 -27 21 -70 28
-118 21z"/>
<path d="M3140 4258 c0 -4 5 -8 11 -8 5 0 7 -4 4 -10 -3 -5 -2 -10 4 -10 5 0
9 8 8 18 -1 18 -27 27 -27 10z"/>
<path d="M993 4215 c0 -8 4 -12 9 -9 5 3 6 10 3 15 -9 13 -12 11 -12 -6z"/>
<path d="M3121 4221 c-8 -5 -9 -11 -3 -15 5 -3 12 1 16 9 6 17 6 18 -13 6z"/>
<path d="M2390 4200 c0 -6 7 -10 15 -10 8 0 15 2 15 4 0 2 -7 6 -15 10 -8 3
-15 1 -15 -4z"/>
<path d="M3369 4178 c-11 -8 -11 -9 3 -5 9 3 19 -1 22 -9 3 -8 1 -14 -4 -14
-5 0 -12 -9 -15 -20 -4 -11 -10 -18 -14 -16 -4 3 -8 -1 -8 -9 0 -8 3 -15 6
-15 7 0 43 60 47 77 3 16 -20 23 -37 11z"/>
<path d="M2396 4162 c-3 -5 1 -9 9 -9 8 0 12 4 9 9 -3 4 -7 8 -9 8 -2 0 -6 -4
-9 -8z"/>
<path d="M1423 4134 c4 -4 2 -13 -4 -20 -7 -8 -6 -14 2 -20 7 -4 9 -3 5 4 -3
6 1 15 10 20 15 8 14 10 -2 16 -10 4 -15 4 -11 0z"/>
<path d="M1010 4120 c0 -5 5 -10 11 -10 5 0 7 5 4 10 -3 6 -8 10 -11 10 -2 0
-4 -4 -4 -10z"/>
<path d="M1817 4115 c-4 -8 -3 -16 1 -19 4 -3 9 4 9 15 2 23 -3 25 -10 4z"/>
<path d="M3026 4113 c-6 -14 -5 -15 5 -6 7 7 10 15 7 18 -3 3 -9 -2 -12 -12z"/>
<path d="M1434 4075 c-4 -8 -11 -12 -17 -8 -6 3 -7 1 -3 -5 10 -16 14 -15 26
8 6 11 8 20 5 20 -3 0 -8 -7 -11 -15z"/>
<path d="M1005 4060 c-3 -5 -1 -10 4 -10 6 0 11 5 11 10 0 6 -2 10 -4 10 -3 0
-8 -4 -11 -10z"/>
<path d="M2776 4062 c-3 -5 1 -9 9 -9 8 0 12 4 9 9 -3 4 -7 8 -9 8 -2 0 -6 -4
-9 -8z"/>
<path d="M3937 4055 c3 -11 3 -17 -2 -13 -4 4 -15 3 -22 -4 -11 -9 -16 -9 -22
1 -6 9 -10 7 -14 -8 -4 -15 -10 -19 -23 -14 -11 4 -15 3 -11 -4 7 -10 -20 -28
-36 -24 -4 0 -10 -5 -13 -13 -3 -8 -13 -12 -25 -9 -11 3 -19 0 -19 -6 0 -7 5
-9 12 -5 7 4 8 3 4 -4 -4 -7 -18 -10 -34 -6 -21 4 -23 3 -12 -5 13 -9 13 -12
1 -23 -8 -7 -11 -8 -8 -2 3 6 0 11 -7 11 -8 0 -12 -7 -9 -16 3 -11 0 -10 -12
4 -17 20 -17 20 -10 -4 5 -15 3 -21 -3 -17 -5 3 -12 -1 -16 -9 -3 -8 -13 -15
-21 -15 -10 0 -13 -5 -9 -12 6 -10 4 -10 -7 0 -16 15 -29 16 -29 1 0 -5 5 -7
10 -4 6 3 10 1 10 -5 0 -15 -33 -26 -38 -12 -2 7 -8 12 -14 12 -6 0 -6 -6 2
-15 14 -17 4 -39 -16 -31 -8 3 -11 0 -7 -10 3 -10 0 -12 -10 -9 -13 6 -18 -2
-31 -45 -1 -3 -5 -10 -8 -16 -4 -6 1 -21 11 -33 15 -17 31 -23 68 -23 26 -1
55 1 63 3 18 5 93 50 100 60 12 16 182 119 251 153 42 20 82 43 89 51 31 37
-2 107 -52 109 -13 1 -29 6 -37 10 -10 6 -12 5 -7 -2 12 -19 -15 -14 -30 6
-13 16 -14 16 -7 -3z"/>
<path d="M3854 4049 c-3 -6 -2 -15 3 -20 5 -5 9 -1 9 11 0 23 -2 24 -12 9z"/>
<path d="M3275 4020 c-3 -5 -1 -10 4 -10 6 0 11 5 11 10 0 6 -2 10 -4 10 -3 0
-8 -4 -11 -10z"/>
<path d="M3790 4005 c-7 -9 -11 -17 -9 -20 3 -2 10 5 17 15 14 24 10 26 -8 5z"/>
<path d="M1439 4003 c-6 -32 -5 -53 1 -53 4 0 7 14 7 30 0 27 -5 41 -8 23z"/>
<path d="M3236 4002 c-3 -5 1 -9 9 -9 8 0 12 4 9 9 -3 4 -7 8 -9 8 -2 0 -6 -4
-9 -8z"/>
<path d="M993 3930 c-1 -11 2 -22 6 -24 4 -3 7 4 6 14 -2 27 -10 33 -12 10z"/>
<path d="M3632 3901 c-11 -7 -11 -9 0 -14 9 -3 15 1 15 9 0 8 -1 14 -1 14 -1
0 -7 -4 -14 -9z"/>
<path d="M988 3873 c7 -3 16 -2 19 1 4 3 -2 6 -13 5 -11 0 -14 -3 -6 -6z"/>
<path d="M1435 3839 c-4 -6 -5 -12 -2 -15 2 -3 7 2 10 11 7 17 1 20 -8 4z"/>
<path d="M4100 3833 c0 -7 -3 -12 -7 -11 -5 1 -18 -1 -30 -6 -21 -7 -28 -18
-24 -40 1 -5 -4 -6 -12 -3 -8 3 -14 -1 -14 -9 0 -8 5 -14 11 -14 5 0 1 -7 -10
-16 -10 -8 -13 -13 -7 -9 10 5 11 0 2 -22 -6 -15 -10 -29 -10 -30 3 -12 -2
-12 -21 -1 -29 15 -50 19 -42 7 3 -5 9 -7 13 -4 5 2 17 -5 27 -17 19 -21 19
-21 -5 -8 -13 6 -21 7 -17 2 3 -6 2 -13 -3 -16 -5 -4 -12 2 -14 11 -4 16 -5
16 -6 -1 -1 -20 -1 -20 -16 0 -14 18 -15 18 -8 0 4 -13 2 -17 -8 -14 -8 3 -13
14 -11 24 2 15 1 16 -7 4 -5 -8 -8 -17 -5 -21 2 -4 0 -10 -5 -13 -5 -4 -12 -2
-16 4 -3 5 -11 10 -16 10 -6 0 -7 -6 -3 -12 5 -9 2 -9 -9 1 -10 7 -17 9 -17 3
0 -11 -39 -10 -58 2 -8 5 -10 2 -6 -8 3 -9 1 -16 -5 -16 -6 0 -11 4 -11 10 0
11 -45 -7 -75 -30 -22 -17 -31 -40 -14 -40 5 0 7 -5 3 -12 -4 -6 -3 -9 2 -6
13 8 56 -10 50 -21 -3 -5 2 -7 13 -4 10 2 35 0 54 -5 26 -7 37 -7 41 1 2 7 5
7 5 2 1 -11 62 -11 80 -1 5 4 14 -2 20 -11 6 -10 11 -12 11 -5 0 6 4 12 9 12
5 0 8 -11 5 -25 -2 -14 0 -25 6 -25 5 0 10 -5 10 -11 0 -5 -4 -7 -10 -4 -5 3
-10 1 -10 -5 0 -6 -3 -9 -8 -6 -4 2 -8 -9 -9 -26 0 -21 2 -26 8 -17 12 20 11
2 -1 -22 -9 -15 -6 -24 15 -45 14 -13 25 -22 25 -19 0 3 13 -1 30 -10 41 -21
57 -19 90 15 26 26 98 161 98 184 1 21 38 25 221 26 212 0 224 3 219 54 -2 24
-11 35 -39 48 -19 10 -47 19 -62 20 -15 1 -27 5 -27 8 0 3 -12 7 -27 8 -15 1
-30 8 -35 15 -5 8 -8 8 -8 1 0 -7 -18 -11 -44 -10 -24 0 -42 5 -39 10 4 5 0 6
-8 0 -19 -12 -52 -12 -61 1 -5 6 -8 6 -8 -2 0 -7 -5 -13 -11 -13 -5 0 -7 6 -4
13 4 6 -1 3 -10 -8 -17 -20 -17 -20 -10 3 3 12 8 42 10 66 4 54 -20 82 -79 89
-21 3 -43 11 -47 19 -7 10 -9 10 -9 1z m-148 -365 c-7 -7 -10 -5 -7 8 5 29 6
30 12 16 3 -8 1 -18 -5 -24z m-12 -58 c0 -5 -5 -10 -11 -10 -5 0 -7 5 -4 10 3
6 8 10 11 10 2 0 4 -4 4 -10z"/>
<path d="M3530 3826 c0 -2 7 -7 16 -10 8 -3 12 -2 9 4 -6 10 -25 14 -25 6z"/>
<path d="M2769 3786 c-8 -8 14 -76 24 -76 5 0 6 -4 3 -9 -3 -4 -1 -23 4 -42
26 -88 31 -201 13 -273 -7 -27 -10 -61 -7 -75 4 -15 52 -70 114 -131 60 -58
133 -139 164 -180 71 -95 161 -276 171 -345 1 -5 5 -17 8 -25 3 -8 9 -33 13
-55 4 -22 9 -47 11 -55 7 -27 6 -284 -1 -325 -11 -63 -34 -156 -50 -202 -8
-22 -12 -44 -9 -47 15 -15 136 164 149 221 4 15 11 34 17 41 5 6 7 12 4 12 -3
0 0 21 7 48 28 103 7 336 -38 445 -29 67 -6 39 28 -35 28 -63 76 -191 82 -223
1 -5 9 -46 19 -90 24 -116 23 -369 -2 -480 -2 -11 -6 -33 -8 -50 -2 -16 -5
-32 -6 -35 -1 -3 -2 -9 -3 -15 -1 -5 -5 -17 -8 -25 -4 -8 -12 -40 -19 -70 -6
-30 -21 -77 -31 -105 -11 -27 -19 -52 -19 -55 4 -26 -223 -511 -247 -530 -4
-3 -14 -18 -22 -35 -15 -31 -25 -44 -48 -70 -7 -8 -10 -15 -6 -15 4 0 -5 -11
-21 -25 -27 -26 -53 -28 -47 -6 1 7 -2 10 -8 6 -8 -5 -8 -11 0 -20 8 -10 7
-16 -7 -24 -10 -6 -14 -11 -9 -11 5 0 2 -8 -5 -17 -10 -11 -10 -14 -1 -9 11 6
17 -11 13 -36 -2 -12 83 -10 95 2 5 5 22 11 36 12 18 2 24 7 20 18 -3 8 -1 12
3 7 12 -10 75 53 75 75 0 26 -21 31 -75 20 l-46 -10 18 22 c10 11 21 23 24 26
3 3 35 41 71 85 87 106 153 201 217 310 29 50 57 97 62 105 5 8 14 25 19 38 5
13 21 47 35 76 14 29 25 55 25 58 0 3 8 23 17 44 9 22 17 41 18 44 1 3 13 43
28 90 75 243 94 491 52 713 -3 15 -7 38 -9 51 -8 47 -59 182 -98 258 -47 92
-122 195 -204 281 -62 64 -43 60 46 -12 55 -44 200 -190 200 -202 0 -4 6 -14
14 -21 14 -15 106 -155 106 -162 0 -3 13 -33 29 -68 64 -139 94 -263 102 -416
2 -43 5 -50 15 -40 15 16 31 131 36 273 2 42 -17 196 -32 268 -33 150 -119
333 -205 432 -61 71 -169 175 -181 175 -2 0 -25 16 -50 35 -26 20 -61 42 -79
49 -29 12 -56 36 -41 36 13 0 136 -50 186 -75 178 -90 300 -188 438 -350 42
-51 55 -48 27 5 -9 17 -15 31 -14 32 4 7 -48 99 -94 168 -110 163 -250 302
-402 397 -49 31 -180 95 -233 114 -31 11 -64 23 -72 26 -8 3 -19 7 -25 8 -5 2
-28 8 -51 14 -104 28 -311 52 -325 37z"/>
<path d="M964 3762 c4 -3 14 -7 22 -8 9 -1 13 0 10 4 -4 3 -14 7 -22 8 -9 1
-13 0 -10 -4z"/>
<path d="M3974 3730 c0 -13 4 -16 10 -10 7 7 7 13 0 20 -6 6 -10 3 -10 -10z"/>
<path d="M953 3707 c0 -8 6 -14 14 -14 9 0 10 4 2 14 -6 7 -12 13 -14 13 -1 0
-2 -6 -2 -13z"/>
<path d="M3987 3695 c-4 -8 -3 -16 1 -19 4 -3 9 4 9 15 2 23 -3 25 -10 4z"/>
<path d="M4296 3682 c-3 -5 1 -9 9 -9 8 0 12 4 9 9 -3 4 -7 8 -9 8 -2 0 -6 -4
-9 -8z"/>
<path d="M3837 3659 c7 -7 15 -10 18 -7 3 3 -2 9 -12 12 -14 6 -15 5 -6 -5z"/>
<path d="M3795 3650 c-4 -6 -11 -7 -17 -4 -7 4 -8 2 -4 -5 6 -9 11 -9 22 0 14
11 18 19 10 19 -3 0 -8 -5 -11 -10z"/>
<path d="M890 3579 c0 -15 18 -19 23 -6 3 8 -1 14 -9 14 -8 0 -14 -4 -14 -8z"/>
<path d="M1001 3396 c-15 -17 -1 -28 19 -15 11 6 12 9 2 9 -7 0 -10 5 -7 10 9
15 -1 12 -14 -4z"/>
<path d="M2488 3312 c-15 -9 -101 -67 -192 -129 -90 -62 -180 -123 -199 -135
-45 -29 -46 -43 -4 -46 52 -4 108 -22 128 -41 17 -16 19 -31 17 -139 -3 -119
-4 -122 -25 -122 -35 0 -101 29 -173 75 -93 60 -128 105 -150 192 -7 27 -15
40 -23 37 -19 -7 -96 -129 -139 -222 -44 -92 -95 -278 -85 -305 6 -16 10 -16
44 6 21 13 53 31 70 41 l33 16 -25 -45 c-13 -25 -42 -69 -64 -97 -23 -28 -40
-53 -37 -55 2 -2 27 5 55 16 58 22 107 55 164 112 22 22 37 32 37 23 0 -25
-39 -93 -75 -131 -19 -20 -32 -39 -30 -43 13 -22 110 17 155 61 28 29 32 28
45 -11 20 -59 44 -84 46 -48 1 13 1 27 0 31 -3 15 20 47 34 47 7 0 15 5 17 11
2 7 24 12 48 13 40 1 45 -1 42 -19 -2 -11 -7 -22 -10 -25 -10 -7 -13 -34 -16
-128 -3 -66 2 -99 20 -155 25 -79 24 -79 98 -41 26 14 60 29 75 34 25 9 25 9
-4 -13 -64 -47 -157 -149 -177 -195 -27 -60 -31 -82 -32 -167 -1 -78 5 -107
31 -171 22 -55 39 -56 38 -4 -1 22 2 40 5 40 3 0 7 8 8 18 1 9 3 24 6 32 2 8
7 30 11 48 4 17 11 32 16 32 5 0 9 7 9 15 0 23 50 106 105 173 27 33 88 90
154 143 33 27 66 66 84 99 32 59 58 167 59 242 0 47 0 48 33 48 43 0 102 -25
115 -49 5 -11 10 -34 10 -52 0 -27 2 -30 15 -19 8 7 15 16 15 20 0 4 7 24 16
45 15 36 16 36 32 18 46 -51 127 -85 177 -74 3 1 -10 16 -28 34 -47 45 -73 86
-81 127 l-7 35 38 -41 c61 -65 198 -146 217 -127 3 3 -12 25 -33 50 -33 36
-81 119 -81 138 0 3 29 -13 64 -34 40 -25 67 -36 73 -30 11 11 -34 199 -62
264 -54 121 -147 275 -167 275 -4 0 -12 -19 -18 -42 -17 -71 -48 -121 -98
-158 -26 -19 -49 -37 -52 -40 -21 -23 -179 -76 -217 -73 -7 0 -22 1 -34 2 -14
1 -27 17 -46 59 -14 31 -26 62 -27 67 -1 6 -5 15 -9 21 -18 30 -42 171 -36
211 10 55 94 182 126 188 12 3 35 8 51 12 15 3 30 6 35 5 4 -1 7 2 7 7 0 9
-95 41 -122 41 -8 0 -18 3 -22 7 -13 14 -51 11 -78 -5z"/>
<path d="M1142 2478 c-22 -46 -43 -115 -61 -201 -31 -149 -16 -402 31 -515 6
-15 12 -30 12 -34 1 -5 5 -9 9 -10 5 -2 9 42 9 97 0 55 6 132 14 170 15 77 20
515 6 515 -5 0 -14 -10 -20 -22z"/>
<path d="M3734 2263 c2 -131 9 -265 15 -298 6 -33 11 -105 12 -160 0 -91 1
-98 14 -75 8 14 19 48 25 75 6 28 14 57 17 65 17 44 24 285 11 365 -9 55 -37
165 -45 179 -4 6 -8 16 -9 21 -5 27 -25 65 -34 65 -7 0 -9 -75 -6 -237z"/>
<path d="M1454 2199 c-12 -20 -8 -219 6 -298 28 -153 98 -331 172 -438 32 -47
55 -57 43 -20 -3 12 -8 32 -10 44 -2 11 -6 30 -9 41 -12 36 -35 143 -41 187
-3 17 -7 46 -10 65 -6 35 -9 62 -20 154 -3 26 -14 60 -24 75 -24 35 -66 117
-84 165 -10 29 -16 35 -23 25z"/>
<path d="M3430 2191 c0 -12 -4 -21 -10 -21 -5 0 -9 -3 -9 -7 3 -17 -14 -73
-22 -73 -5 0 -9 -4 -9 -10 0 -5 -13 -31 -30 -58 -28 -47 -37 -80 -45 -172 -2
-25 -6 -57 -9 -71 -3 -14 -7 -42 -8 -62 -2 -20 -5 -37 -8 -37 -3 0 -6 -16 -8
-36 -1 -20 -5 -41 -9 -47 -3 -6 -7 -22 -9 -36 -1 -14 -6 -37 -9 -51 -3 -14 -7
-30 -9 -37 -1 -7 -5 -16 -9 -19 -10 -11 -9 -34 3 -34 22 0 122 177 155 275 18
53 26 79 26 82 0 2 5 17 11 35 5 18 11 47 14 63 2 17 7 55 11 85 4 30 7 87 5
125 -1 39 -2 80 -2 92 0 12 -5 25 -10 28 -6 3 -10 -3 -10 -14z"/>
<path d="M2493 1928 c-4 -7 -8 -18 -9 -25 -6 -40 -189 -397 -238 -466 -50 -69
-64 -85 -126 -141 -33 -30 -39 -40 -29 -47 8 -5 23 -8 34 -5 60 13 74 18 114
38 46 24 102 89 128 148 22 51 26 24 8 -56 -9 -38 -17 -79 -18 -91 0 -13 -5
-23 -9 -23 -4 0 -7 -3 -6 -7 4 -14 -45 -158 -56 -165 -6 -4 -7 -8 -3 -8 4 0 2
-10 -5 -22 -7 -13 -12 -25 -11 -28 2 -8 15 -239 18 -315 2 -38 4 -80 4 -92 2
-37 19 -27 58 35 36 55 129 250 138 288 3 11 14 55 25 99 22 87 31 140 34 195
1 20 4 40 7 45 6 11 3 131 -4 228 -2 31 -3 57 -1 57 3 0 23 -70 30 -105 4 -20
12 -58 19 -85 2 -8 4 -15 5 -15 1 0 3 -11 6 -24 2 -13 9 -31 14 -40 9 -16 11
-13 14 27 1 9 4 22 8 27 8 13 4 222 -5 285 -9 54 -43 156 -63 188 -8 12 -12
22 -9 22 3 0 -8 20 -25 45 -34 50 -35 50 -47 33z"/>
<path d="M693 1416 c-150 -60 -253 -158 -253 -239 0 -72 121 -180 209 -186 11
0 27 -8 35 -17 9 -9 16 -11 16 -4 0 6 5 8 10 5 6 -4 7 -12 4 -18 -4 -7 -4 -9
1 -5 4 4 14 3 22 -4 11 -9 13 -8 11 2 -2 8 5 16 14 18 13 2 16 -1 12 -15 -3
-10 1 -7 9 7 9 14 17 23 19 21 2 -2 13 -1 26 3 14 5 29 3 40 -6 15 -12 16 -11
3 5 -12 15 -12 20 -2 26 18 12 -7 55 -34 59 -11 1 -28 3 -38 4 -10 1 -15 8
-12 15 3 10 0 11 -13 5 -9 -5 -26 -7 -37 -5 -11 3 -28 5 -37 6 -9 1 -16 6 -15
12 1 5 -3 9 -8 8 -6 -1 -10 12 -10 29 -1 21 10 43 36 71 32 37 38 40 53 28 14
-12 16 -12 11 2 -4 10 4 20 26 31 34 17 53 21 31 7 -11 -7 -11 -9 2 -14 9 -4
15 -3 15 1 -4 25 3 33 22 27 13 -4 19 -3 16 2 -4 5 1 10 9 10 8 0 13 -6 10
-13 -3 -8 0 -16 6 -20 7 -4 8 -3 4 4 -5 8 1 12 16 13 22 0 22 1 3 9 -19 8 -19
9 3 9 18 1 22 -3 18 -16 -24 -83 -18 -116 25 -139 49 -25 78 -24 107 5 15 14
23 29 19 32 -4 3 0 12 9 20 10 8 15 9 11 2 -4 -6 -3 -14 2 -17 10 -7 9 13 -2
31 -4 6 -3 14 3 18 5 3 10 11 10 16 0 6 -5 7 -11 3 -7 -4 -6 2 1 17 10 17 10
24 1 27 -6 2 -11 11 -11 19 0 9 -8 23 -18 32 -10 9 -24 25 -31 36 -9 14 -11
15 -7 3 7 -24 -19 -12 -33 15 -6 12 -10 15 -7 6 3 -12 -5 -11 -43 7 -72 35
-177 31 -278 -10z"/>
<path d="M4043 1333 c-34 -18 -56 -37 -64 -55 -6 -16 -16 -31 -22 -35 -6 -4
-7 -1 -2 7 5 9 4 11 -4 6 -9 -6 -9 -11 1 -24 11 -13 11 -14 -1 -7 -11 6 -13 4
-7 -10 5 -15 4 -16 -8 -6 -11 9 -16 9 -22 0 -4 -7 -3 -9 3 -6 6 4 13 0 16 -8
4 -10 1 -12 -10 -8 -12 5 -14 3 -8 -8 7 -11 5 -11 -10 1 -11 9 -16 10 -11 3 6
-12 -4 -17 -26 -15 -3 1 -9 -5 -12 -14 -4 -9 -2 -12 5 -8 8 4 7 0 0 -15 -7
-11 -16 -21 -21 -21 -6 0 -10 -5 -10 -11 0 -5 4 -8 9 -5 5 4 8 -2 6 -11 -2
-10 -4 -22 -4 -27 -1 -5 -9 -2 -18 5 -11 9 -10 3 6 -18 12 -18 19 -33 15 -33
-3 0 0 -8 7 -17 12 -15 12 -16 -1 -8 -10 5 -12 5 -5 -2 14 -15 75 -34 75 -24
0 5 12 11 28 13 15 3 33 7 41 9 8 2 17 -6 22 -21 4 -14 7 -21 8 -17 1 4 10 -1
22 -12 12 -11 18 -25 14 -31 -4 -7 -1 -10 6 -9 19 3 49 -11 49 -22 0 -6 -7 -6
-18 0 -14 7 -19 6 -19 -3 0 -13 25 -15 45 -2 11 7 17 -5 13 -27 -1 -5 3 -6 9
-2 6 3 8 11 5 16 -6 9 -1 10 58 14 34 2 77 24 77 39 0 17 -39 76 -86 132 -24
28 -44 57 -44 63 0 7 -5 9 -12 5 -7 -4 -8 -3 -4 5 6 9 11 9 22 0 7 -6 11 -16
7 -23 -4 -6 2 -4 12 4 17 14 18 13 12 -2 -3 -10 -3 -17 1 -17 20 3 43 -2 39
-8 -3 -5 13 -7 35 -7 22 1 44 7 48 14 4 6 16 10 26 8 11 -2 24 0 29 4 59 45
67 55 72 99 5 47 -10 90 -42 123 -18 17 -65 21 -80 7 -6 -5 -19 -11 -30 -13
-11 -1 -23 -7 -26 -11 -3 -5 -12 -2 -20 5 -32 32 -95 68 -119 68 -14 0 -48
-12 -77 -27z m92 -192 c3 -5 2 -12 -3 -15 -5 -3 -9 1 -9 9 0 17 3 19 12 6z"/>
<path d="M4010 1340 c-9 -6 -10 -10 -3 -10 6 0 15 5 18 10 8 12 4 12 -15 0z"/>
<path d="M3975 1329 c-4 -6 -5 -12 -2 -15 2 -3 7 2 10 11 7 17 1 20 -8 4z"/>
<path d="M2256 1227 c-36 -63 -138 -153 -211 -188 -34 -16 -68 -29 -75 -29
-10 0 -11 -3 -3 -11 11 -11 93 -8 142 4 69 18 151 104 173 181 26 95 16 113
-26 43z"/>
<path d="M790 1249 c0 -5 5 -7 10 -4 6 3 10 8 10 11 0 2 -4 4 -10 4 -5 0 -10
-5 -10 -11z"/>
<path d="M701 1201 c-24 -30 -27 -39 -14 -37 9 2 17 11 19 20 4 26 14 32 25
16 8 -11 9 -9 4 9 -5 17 -4 22 5 16 9 -5 11 -4 6 3 -10 17 -11 16 -45 -27z"/>
<path d="M1095 1160 c-3 -5 -1 -10 4 -10 6 0 11 5 11 10 0 6 -2 10 -4 10 -3 0
-8 -4 -11 -10z"/>
<path d="M678 1143 c6 -2 9 -10 6 -15 -4 -7 -2 -8 5 -4 13 9 5 26 -12 25 -9 0
-8 -2 1 -6z"/>
<path d="M706 1122 c-2 -4 5 -14 17 -22 19 -12 21 -11 10 2 -7 8 -10 18 -6 21
3 4 1 7 -5 7 -6 0 -13 -4 -16 -8z"/>
<path d="M3814 1016 c1 -8 5 -18 8 -22 4 -3 5 1 4 10 -1 8 -5 18 -8 22 -4 3
-5 -1 -4 -10z"/>
<path d="M1006 964 c-10 -10 -14 -23 -10 -33 31 -74 32 -67 -26 -118 -103 -92
-120 -111 -120 -135 0 -28 28 -46 80 -50 19 -1 41 -10 48 -18 10 -13 11 -13 6
3 -5 13 -1 17 15 17 12 0 21 5 21 10 0 6 9 10 20 10 11 0 20 5 20 11 0 5 -5 7
-12 3 -7 -4 -8 -3 -4 5 6 9 11 9 22 0 12 -10 13 -9 7 6 -5 14 -3 17 10 12 11
-4 15 -1 12 13 -3 14 1 17 12 13 12 -5 14 -3 8 8 -7 12 -6 12 7 1 13 -11 16
-10 14 5 -1 12 7 19 23 21 17 3 21 0 16 -10 -5 -7 -4 -10 1 -5 5 5 9 16 9 25
0 12 7 16 23 15 16 -2 21 1 16 10 -4 6 7 -1 24 -17 18 -17 32 -26 32 -22 0 5
10 2 23 -6 18 -12 27 -13 53 -2 17 7 37 21 45 30 9 11 9 15 2 10 -7 -4 -13 -3
-13 1 0 5 6 15 13 22 6 8 7 11 1 8 -6 -4 -27 11 -46 33 -20 21 -38 36 -42 33
-3 -4 -6 0 -6 7 0 7 -3 10 -7 7 -3 -4 -12 1 -20 11 -8 9 -11 11 -7 3 5 -10 1
-11 -17 -6 -13 4 -28 11 -34 14 -5 4 -20 6 -33 5 -12 -1 -20 1 -18 4 7 6 -20
32 -33 32 -6 0 -11 4 -11 8 0 5 -6 9 -12 9 -7 1 -31 4 -54 8 -32 5 -45 2 -58
-11z"/>
<path d="M3985 971 c-3 -5 -2 -12 3 -15 5 -3 9 1 9 9 0 17 -3 19 -12 6z"/>
<path d="M825 960 c3 -5 8 -10 11 -10 2 0 4 5 4 10 0 6 -5 10 -11 10 -5 0 -7
-4 -4 -10z"/>
<path d="M4028 913 c7 -3 16 -2 19 1 4 3 -2 6 -13 5 -11 0 -14 -3 -6 -6z"/>
<path d="M1310 906 c0 -2 7 -7 16 -10 8 -3 12 -2 9 4 -6 10 -25 14 -25 6z"/>
<path d="M3640 902 c0 -9 -10 -12 -30 -9 -19 4 -29 1 -27 -6 1 -7 -4 -11 -10
-9 -7 1 -13 -2 -13 -7 0 -5 -7 -12 -16 -15 -14 -5 -15 -4 -5 8 9 11 9 16 -1
22 -7 4 -10 4 -6 -1 9 -10 -31 -67 -42 -60 -11 7 -80 -53 -80 -68 0 -6 6 -2
14 8 13 19 14 18 13 -8 -1 -17 -7 -25 -14 -23 -7 3 -10 -1 -6 -9 3 -8 8 -13
12 -11 4 3 7 -4 7 -14 0 -10 -3 -17 -6 -15 -4 2 -7 -2 -7 -9 0 -8 6 -12 13 -9
14 5 13 -22 -1 -34 -4 -4 -5 -2 0 6 5 9 4 12 -3 7 -15 -9 -15 -11 5 -27 15
-12 16 -12 8 1 -4 8 -6 13 -2 10 3 -3 24 -41 46 -85 32 -64 37 -82 28 -95 -10
-13 -10 -13 5 -2 20 16 42 6 34 -15 -3 -8 -2 -12 3 -8 5 3 11 2 14 -2 2 -5 2
-3 1 4 -3 12 18 8 41 -6 13 -9 62 -7 100 3 158 43 195 287 63 419 -29 29 -57
48 -73 49 -14 0 -31 1 -37 2 -7 1 -16 6 -20 11 -5 6 -8 5 -8 -3z m21 -166 c9
-11 14 -27 11 -35 -3 -8 -1 -12 5 -8 13 8 13 -25 -1 -42 -8 -11 -8 -13 2 -7 7
4 12 2 12 -8 0 -9 -7 -13 -20 -11 -11 2 -20 -1 -20 -7 0 -5 7 -8 15 -5 8 4 17
2 20 -2 3 -5 -2 -11 -10 -15 -8 -3 -15 -11 -14 -18 0 -10 2 -10 6 0 2 6 9 12
14 12 5 0 4 -9 -3 -19 -11 -18 -13 -18 -24 -3 -7 9 -10 20 -8 24 3 5 1 8 -4 8
-16 0 -29 44 -30 101 0 45 3 56 16 56 9 0 24 -10 33 -21z"/>
<path d="M3624 738 c-4 -7 -3 -10 1 -5 5 4 18 -1 29 -10 21 -18 21 -18 2 5
-22 26 -23 26 -32 10z"/>
<path d="M1352 871 c-11 -6 -10 -10 4 -15 9 -3 19 -4 22 -1 3 3 0 5 -7 5 -7 0
-9 5 -6 10 7 12 4 12 -13 1z"/>
<path d="M3030 860 c0 -5 5 -10 11 -10 5 0 7 5 4 10 -3 6 -8 10 -11 10 -2 0
-4 -4 -4 -10z"/>
<path d="M1380 826 c7 -7 13 -7 20 0 6 6 3 10 -10 10 -13 0 -16 -4 -10 -10z"/>
<path d="M1202 756 c7 -8 15 -12 17 -11 5 6 -10 25 -20 25 -5 0 -4 -6 3 -14z"/>
<path d="M2770 738 c0 -5 -3 -7 -7 -5 -5 3 -17 -5 -28 -16 -11 -11 -14 -17 -7
-13 6 4 12 2 12 -3 0 -6 -4 -11 -9 -11 -5 0 -7 -9 -4 -20 5 -18 -5 -25 -30
-21 -5 1 -6 -3 -2 -8 3 -6 12 -8 20 -4 8 3 15 0 15 -6 0 -6 -5 -11 -12 -11 -6
0 -3 -7 8 -16 19 -15 19 -16 -1 -9 -16 5 -18 4 -7 -6 16 -18 15 -32 -2 -26
-10 4 -13 1 -9 -9 3 -8 11 -13 18 -10 8 3 11 -2 8 -14 -3 -11 -12 -21 -22 -23
-13 -4 -13 -5 2 -6 10 0 16 -5 12 -11 -3 -5 -13 -6 -22 -3 -12 5 -14 3 -8 -7
5 -8 4 -11 -2 -7 -6 4 -18 -2 -27 -12 -22 -25 -17 -87 7 -83 9 1 21 -7 27 -18
6 -11 16 -20 23 -20 8 0 7 4 -3 10 -8 5 -11 12 -7 16 13 14 21 -6 23 -60 2
-47 0 -54 -14 -49 -13 5 -12 2 3 -13 11 -10 20 -28 19 -39 0 -11 4 -28 9 -39
7 -14 6 -17 -5 -10 -10 6 -11 5 -1 -7 6 -8 12 -18 13 -24 1 -5 4 -12 7 -15 4
-3 3 1 -1 7 -4 7 -3 13 3 13 5 0 13 -9 16 -20 3 -11 13 -20 21 -20 8 0 14 -4
14 -9 0 -4 12 -7 27 -5 31 3 103 34 103 44 0 4 11 20 25 36 49 55 70 123 45
139 -23 15 -70 24 -64 13 5 -7 1 -9 -9 -5 -11 4 -14 2 -11 -8 4 -10 0 -12 -15
-8 -12 3 -18 10 -14 17 3 6 2 8 -2 3 -13 -12 -16 -47 -4 -47 5 0 7 5 4 10 -3
6 -1 10 4 10 18 0 12 -19 -8 -29 -25 -14 -39 4 -36 47 1 17 -1 32 -4 32 -3 0
-7 17 -7 39 -1 28 4 41 19 50 10 7 17 8 13 3 -3 -5 1 -9 8 -9 8 0 12 7 8 15
-3 9 0 13 8 10 8 -2 22 3 32 11 10 9 27 24 37 33 18 15 19 57 2 59 -3 0 -15 2
-26 4 -11 2 -33 5 -50 6 -41 4 -55 16 -55 48 0 15 6 33 13 40 7 9 7 11 1 8 -8
-5 -14 8 -18 36 -3 23 -7 47 -8 52 -2 12 -68 15 -68 3z m120 -200 c0 -11 -28
-10 -35 1 -3 6 4 9 15 8 11 -1 20 -5 20 -9z"/>
<path d="M1599 665 c-1 -3 -2 -10 -3 -17 0 -6 -14 -15 -31 -20 -16 -4 -45 -21
-64 -38 -18 -16 -38 -30 -42 -30 -5 0 -9 -6 -9 -13 0 -8 -18 -21 -40 -30 -45
-17 -59 -41 -41 -69 7 -11 10 -32 6 -49 -11 -51 10 -93 63 -122 26 -14 61 -29
77 -32 40 -8 164 -12 160 -5 -2 4 13 12 33 20 20 7 40 18 44 24 4 6 13 11 19
11 7 0 13 12 13 27 1 14 -2 24 -6 22 -4 -3 -8 -1 -8 5 0 5 5 13 10 16 6 3 10
10 10 16 0 5 -9 0 -21 -12 -11 -11 -24 -18 -27 -14 -4 3 0 10 8 15 11 7 10 9
-7 8 -11 -1 -19 -7 -16 -13 5 -15 -31 -12 -51 4 -13 11 -15 10 -11 -7 3 -16
-2 -19 -36 -17 -25 1 -45 9 -55 21 -14 17 -15 17 -10 1 3 -11 2 -16 -4 -12
-16 10 -12 23 10 35 16 9 19 8 13 -6 -5 -14 -3 -15 16 -4 17 9 26 9 37 0 7 -7
11 -17 7 -23 -3 -6 -1 -7 5 -3 6 4 9 13 5 21 -7 19 27 20 46 3 11 -11 13 -10
8 4 -5 13 -1 16 19 12 19 -3 24 -1 18 8 -5 9 -1 8 12 -2 10 -8 16 -11 12 -6
-9 11 49 59 62 51 6 -4 7 1 3 11 -4 11 -3 15 5 10 7 -4 10 1 7 14 -2 11 4 24
13 31 16 10 16 10 0 5 -10 -3 -18 -1 -18 4 0 6 6 10 13 10 9 0 9 2 0 8 -6 4
-13 14 -15 21 -3 14 -38 55 -48 57 -21 4 -39 18 -33 28 4 8 3 8 -6 0 -14 -13
-51 -7 -51 8 0 5 4 7 9 3 5 -3 12 -1 15 4 4 5 -1 8 -10 7 -8 -1 -19 -8 -23
-15 -11 -17 -12 -17 -40 -2 -17 10 -21 10 -16 1 5 -8 1 -11 -11 -8 -11 2 -18
10 -16 16 2 11 -7 18 -9 7z m52 -128 c-6 -8 -8 -17 -4 -20 9 -9 23 -9 22 1 -4
25 2 34 14 23 8 -6 16 -8 20 -5 3 3 4 -2 3 -13 -2 -11 -10 -17 -21 -15 -10 2
-14 -1 -10 -7 10 -17 -11 -13 -26 5 -12 14 -14 14 -26 -2 -7 -10 -13 -14 -13
-9 0 5 10 19 22 32 23 25 38 32 19 10z"/>
<path d="M1670 526 c0 -2 7 -7 16 -10 8 -3 12 -2 9 4 -6 10 -25 14 -25 6z"/>
<path d="M3127 647 c7 -12 -8 -48 -18 -42 -5 3 -6 -1 -3 -9 3 -9 9 -16 13 -16
4 0 7 -10 7 -22 0 -13 4 -34 8 -47 5 -15 5 -21 -2 -17 -6 3 -9 -1 -8 -11 2 -9
11 -20 22 -24 17 -7 17 -8 2 -8 -10 -1 -18 -5 -18 -11 0 -5 3 -9 8 -9 19 3 23
-2 13 -15 -8 -10 -9 -16 -1 -21 6 -3 7 -11 4 -17 -5 -7 -1 -9 9 -5 12 5 17 1
19 -13 0 -11 1 -26 2 -32 1 -7 7 -17 14 -21 7 -5 10 -12 7 -17 -3 -5 -1 -11 5
-15 5 -3 10 -18 10 -33 0 -21 2 -24 10 -12 5 8 10 10 10 3 0 -12 51 -33 81
-33 27 0 33 49 14 116 -9 33 -22 83 -29 112 -8 29 -14 55 -15 57 0 3 -1 8 -2
13 -1 4 -2 14 -3 22 -2 8 -3 31 -4 51 -1 20 -11 47 -21 60 -16 20 -28 24 -79
24 -33 0 -58 -3 -55 -8z m43 -247 c0 -5 -2 -10 -4 -10 -3 0 -8 5 -11 10 -3 6
-1 10 4 10 6 0 11 -4 11 -10z"/>
<path d="M1781 634 c0 -11 3 -14 6 -6 3 7 2 16 -1 19 -3 4 -6 -2 -5 -13z"/>
<path d="M3470 540 c11 -22 23 -40 25 -40 3 0 -4 18 -15 40 -11 22 -23 40 -25
40 -3 0 4 -18 15 -40z"/>
<path d="M1850 559 c0 -5 5 -7 10 -4 6 3 10 8 10 11 0 2 -4 4 -10 4 -5 0 -10
-5 -10 -11z"/>
<path d="M3095 560 c3 -5 8 -10 11 -10 2 0 4 5 4 10 0 6 -5 10 -11 10 -5 0 -7
-4 -4 -10z"/>
<path d="M2173 521 c-5 -21 -29 -35 -44 -25 -5 3 -8 1 -7 -4 2 -5 -10 -21 -25
-36 -15 -14 -25 -26 -22 -26 3 0 0 -6 -7 -14 -7 -8 -16 -12 -20 -10 -4 2 -10
-1 -14 -7 -4 -8 -3 -9 4 -5 16 10 15 1 -4 -35 -40 -79 -41 -214 -1 -254 24
-23 95 -38 115 -22 6 5 12 6 12 1 0 -5 4 -4 8 1 14 19 51 35 69 29 13 -4 15
-3 5 4 -11 8 -11 10 1 15 9 3 18 -6 27 -28 13 -34 38 -47 75 -40 11 2 27 4 36
4 35 2 117 92 115 127 -1 16 -33 44 -41 36 -4 -4 -10 -7 -13 -7 -4 -1 -16 -6
-27 -12 -16 -9 -26 -8 -45 3 -14 7 -20 13 -13 14 6 0 12 10 12 23 2 73 -1 83
-20 100 -23 18 -44 23 -34 7 3 -6 -1 -7 -9 -4 -9 3 -16 1 -16 -6 0 -6 -4 -8
-10 -5 -5 3 -10 -1 -10 -9 0 -9 -4 -16 -10 -16 -5 0 -10 -6 -10 -12 0 -7 -12
-26 -26 -43 -14 -16 -23 -24 -19 -17 3 6 2 12 -2 12 -5 0 -13 -10 -18 -22 -15
-32 -42 -31 -54 2 -5 16 -7 31 -3 34 3 4 7 14 8 23 4 24 26 74 31 69 3 -2 -1
-14 -7 -26 -10 -19 -9 -25 6 -39 17 -15 17 -15 5 1 -10 13 -9 22 3 46 8 16 12
32 9 36 -4 3 -2 6 3 7 5 0 22 2 37 4 23 3 26 1 18 -9 -8 -10 -7 -17 6 -27 16
-13 17 -12 5 3 -11 14 -10 17 9 23 13 4 24 2 29 -5 6 -9 15 -8 40 5 17 9 29
19 26 22 -3 4 -1 12 6 20 9 11 8 13 -3 11 -8 -2 -13 4 -13 14 1 10 -3 15 -9
11 -7 -4 -8 0 -3 12 5 15 4 16 -9 5 -12 -10 -15 -10 -15 4 0 9 -5 16 -11 16
-5 0 -7 -6 -3 -12 5 -9 2 -9 -9 1 -19 15 -23 36 -5 25 7 -5 8 -3 3 6 -6 10
-11 9 -22 -5 -10 -15 -13 -16 -13 -4 0 9 -7 16 -15 16 -8 0 -12 -4 -10 -7 3
-4 -7 -7 -21 -7 -17 0 -24 4 -20 13 3 8 3 14 0 14 -3 0 -8 -9 -11 -19z"/>
<path d="M3106 523 c-6 -14 -5 -15 5 -6 7 7 10 15 7 18 -3 3 -9 -2 -12 -12z"/>
<path d="M2310 521 c0 -6 4 -13 10 -16 6 -3 7 1 4 9 -7 18 -14 21 -14 7z"/>
<path d="M3490 482 c0 -5 7 -9 15 -9 8 0 12 4 9 9 -3 4 -9 8 -15 8 -5 0 -9 -4
-9 -8z"/>
<path d="M1601 371 c-9 -6 -10 -11 -2 -15 6 -4 11 -1 11 6 0 9 3 9 10 -2 6 -9
10 -10 10 -3 0 17 -14 23 -29 14z"/>
<path d="M2366 362 c-3 -5 1 -9 9 -9 8 0 12 4 9 9 -3 4 -7 8 -9 8 -2 0 -6 -4
-9 -8z"/>
<path d="M3156 342 c-3 -5 1 -9 9 -9 8 0 12 4 9 9 -3 4 -7 8 -9 8 -2 0 -6 -4
-9 -8z"/>
<path d="M2710 319 c0 -5 5 -7 10 -4 6 3 10 8 10 11 0 2 -4 4 -10 4 -5 0 -10
-5 -10 -11z"/>
<path d="M2140 296 c0 -2 8 -10 18 -17 15 -13 16 -12 3 4 -13 16 -21 21 -21
13z"/>
<path d="M2205 280 c-3 -5 -1 -10 4 -10 6 0 11 5 11 10 0 6 -2 10 -4 10 -3 0
-8 -4 -11 -10z"/>
<path d="M2139 257 c6 -8 8 -17 4 -20 -3 -4 -1 -7 5 -7 7 0 15 0 19 0 4 0 8 6
9 14 1 9 -4 12 -12 9 -8 -3 -14 0 -14 6 0 6 -5 11 -11 11 -8 0 -9 -4 0 -13z"/>
<path d="M2386 262 c-3 -5 1 -9 9 -9 8 0 12 4 9 9 -3 4 -7 8 -9 8 -2 0 -6 -4
-9 -8z"/>
<path d="M3194 250 c0 -13 4 -16 10 -10 7 7 7 13 0 20 -6 6 -10 3 -10 -10z"/>
<path d="M2720 210 c6 -11 13 -20 16 -20 2 0 0 9 -6 20 -6 11 -13 20 -16 20
-2 0 0 -9 6 -20z"/>
</g>
</svg>
